<?xml version="1.0"?><svg width="640" height="480" xmlns="http://www.w3.org/2000/svg">
 <title>Mountain snow</title>

 <g>
  <title>Layer 1</title>
  <path fill="#3f3f3f" fill-rule="evenodd" stroke="#000000" stroke-width="2px" id="path2" d="m399.549347,124.573936l10.28299,-5.117004l14.559998,9.346992c4.322021,0.993011 4.756012,7.763 14.300995,10.953995c9.545013,3.19101 16.389008,5.957001 20.531036,8.296997c4.141968,2.341003 7.563965,4.326004 10.265991,5.957001c2.700989,1.632004 5.763,3.334 9.184998,5.10701c3.420959,1.771988 8.554016,3.722992 15.39801,5.849991c6.843994,2.128006 -2.487,0.869003 14.347961,4.695999c-4.768982,-0.824997 6.100037,3.400009 14.64502,7.458008c2.968018,5.809998 9.856018,9.567001 13.387024,14.057999c2.606995,5.016998 42.104431,16.04808 46.608398,22.296082c-8.513977,2.261002 -55.646423,-4.294083 -49.902405,-2.19809l-11.598999,-4.675995l-6.882996,1.216003c-28.370056,0.084 -13.595154,-0.708481 -22.363159,-2.847702l10.60907,-2.271469c4.274963,-1.860001 16.368042,-7.994827 22.226074,-11.488831c-3.447021,-4.069 -8.268005,-10.194 -13.231995,-11.733994c-5.763,-1.134003 2.511963,0.112991 -8.653992,-1.589005c-11.166016,-1.701996 -9.369995,-1.643005 -12.972046,-2.494003c-3.60199,-0.850998 -8.013977,-2.020996 -13.237,-3.509995c-5.222961,-1.488998 -10.265991,-3.050003 -15.128967,-4.681c-4.862,-1.631012 -7.384033,-2.48201 -7.564026,-2.553009l-0.269958,-0.106003l-0.27002,0.106003c-0.179993,0.070999 -3.332031,-0.070999 -9.455017,-0.425003l-9.184998,-0.531998l-2.701996,-1.80899c-1.800995,-1.205002 -3.691986,-2.48201 -5.673004,-3.82901c-1.980988,-1.347992 -4.321991,-2.623993 -7.02298,-3.830002c-2.702026,-1.204987 -5.133026,-1.985992 -7.294006,-2.339996l-3.242004,-0.531998l1.079987,6.169998l1.081024,6.169998l5.402985,1.169998c3.60199,0.779999 8.104004,1.560013 13.506989,2.340012l7.301025,2.797989l3.774994,0.5c1.980988,1.417999 3.511993,2.48201 4.593018,3.19101l1.620972,1.063995l4.59198,0.957001c3.062012,0.639008 6.304016,1.419006 9.725037,2.341003c3.421997,0.921997 5.222961,1.595001 5.403015,2.020996l2.943604,6.370117l-27.526642,-4.562119c-16.569,0.779999 -26.834991,0.887009 -30.796997,0.319c-3.962006,-0.567001 -6.03299,-0.886002 -6.212982,-0.957001l-0.27002,-0.106003l1.621002,-2.127991c1.080017,-1.417999 2.701019,-2.553009 4.862,-3.404007l3.242004,-1.276993l-4.59201,-0.957001c-3.061981,-0.638 -6.843994,-1.347 -11.346985,-2.126999l-6.752991,-1.171005l-2.162018,-2.552994c-1.440002,-1.702011 -3.151001,-3.865005 -5.131989,-6.488998l-2.972015,-3.936005l-2.431,0.531998c-1.621002,0.354996 -3.332001,1.667007 -5.132996,3.936005c-1.800995,2.269989 -5.583008,7.162994 -11.346008,14.679993c-5.763,7.518005 -11.255981,12.872009 -16.478973,16.063004c-5.223022,3.192001 -10.446014,6.098999 -15.669006,8.722992c-5.222992,2.624008 -10.084991,5.248001 -14.588013,7.872009c-4.501984,2.623993 -7.563995,4.539001 -9.184998,5.744003c-1.621002,1.205994 -3.151001,2.802002 -4.59201,4.786987c-1.440979,1.986008 -2.791992,4.078003 -4.051971,6.277008c-1.261017,2.197998 -2.432007,3.332993 -3.512024,3.403992l-6.789978,10.270004l-0.801025,-3.46199c0.562012,-6.828003 4.889008,-10.177002 5.970001,-13.723007c1.080017,-3.546005 2.971008,-6.985001 5.673004,-10.317993c2.701019,-3.334 5.042999,-5.674011 7.024017,-7.021011c1.980988,-1.347992 5.222992,-3.332993 9.725006,-5.957001c4.502991,-2.623993 8.464996,-4.893997 11.886993,-6.80899c3.42099,-1.914001 5.852997,-3.652008 7.292999,-5.212006c1.440979,-1.559998 3.151978,-4.645004 5.132996,-9.255005l2.971985,-6.913986l-4.321991,0c-2.881989,0 -5.674011,0.460999 -8.375,1.382996c-2.700989,0.92099 -5.493011,2.516998 -8.375,4.787003c-2.881989,2.269989 -8.283997,7.942001 -16.208008,17.019989c-7.924988,9.077011 -15.578979,16.488007 -22.962982,22.233002c-7.384003,5.744003 -12.247009,9.361008 -14.588013,10.850006c-2.341003,1.488998 -6.122986,3.972 -11.346008,7.446991c-5.222992,3.475006 -11.165985,6.808014 -17.829987,9.999008c-6.662994,3.190994 -10.806,5.177002 -12.425995,5.957001c-1.621002,0.779999 -3.152008,1.45401 -4.593018,2.020996c-1.440979,0.567993 -6.302979,2.199005 -14.587982,4.894012c-8.283997,2.694977 -18.910004,5.247986 -31.876999,7.658997c-12.96701,2.41098 -23.77301,4.397003 -32.417999,5.957001c-8.645004,1.559998 -14.498001,2.658997 -17.559006,3.298004l-4.593002,0.957001l1.621002,-1.489014c1.080994,-0.993011 2.610992,-1.985992 4.591995,-2.979004c1.98201,-0.992981 4.143005,-1.701996 6.484009,-2.126984c2.340988,-0.426025 5.763,-1.312012 10.265991,-2.660004c4.501999,-1.347015 8.914001,-2.516998 13.237,-3.51001c4.322006,-0.993011 8.284012,-1.915009 11.886002,-2.765991c3.602005,-0.851013 8.735001,-2.162994 15.399002,-3.936005c6.662994,-1.77301 13.326996,-3.687988 19.98999,-5.744003c6.664001,-2.056992 12.067017,-4.042999 16.209015,-5.957001c4.143005,-1.914993 7.473999,-3.582001 9.996002,-5c2.520996,-1.418991 5.402985,-3.403992 8.643982,-5.957001c3.242004,-2.552994 8.64502,-6.595993 16.209015,-12.126999c7.563995,-5.531998 11.97699,-9.362 13.237,-11.488998l1.891998,-3.190994l-1.891998,-0.42601c-1.26001,-0.283997 -2.610992,-0.709 -4.052002,-1.276001c-1.440002,-0.567993 -4.951996,-1.950989 -10.535004,-4.149002c-5.583008,-2.19899 -9.996002,-3.580994 -13.238007,-4.148987l-4.862,-0.851013l-3.781982,0l-3.782013,0l-9.455994,2.021011c-6.303009,1.347992 -11.79599,3.723999 -16.479004,7.127991c-4.682007,3.404007 -8.283997,7.020004 -10.804993,10.850006c-2.522003,3.830002 -3.963013,6.240997 -4.322998,7.233994c-0.360001,0.993011 -1.080002,2.126999 -2.161011,3.404007c-1.080994,1.276001 -2.070999,2.587997 -2.972,3.936005c-0.899994,1.347 -1.709991,2.056 -2.431,2.126999c-0.720001,0.070999 -1.981003,1.950989 -3.781998,5.638c-1.800995,3.687988 -3.332001,5.744995 -4.591995,6.169998c-1.261002,0.425995 -2.972,1.418991 -5.133011,2.979004l-3.241989,2.339996l0.539993,-4.893005l0.541,-4.893997l-4.593002,2.233994c-3.061996,1.490005 -6.93399,3.369003 -11.615997,5.638c-4.682999,2.270004 -7.744003,3.759003 -9.184998,4.468002c-1.440994,0.709015 -4.682999,1.45401 -9.725998,2.234009l-7.563995,1.169983l1.620987,-1.914978c1.081009,-1.276001 2.251007,-2.127014 3.512009,-2.553009c1.261002,-0.425003 3.151993,-1.417999 5.673004,-2.977997c2.521988,-1.559998 9.00499,-6.169998 19.450989,-13.82901c10.445999,-7.658997 16.029007,-12.481995 16.749008,-14.468002c0.720001,-1.984985 0.62999,-3.367996 -0.270004,-4.147995l-1.350998,-1.169998l-4.591995,2.445999c-3.062012,1.630997 -7.475006,4.503998 -13.238007,8.617004c-5.763,4.112991 -15.938004,11.453003 -30.526001,22.020004c-14.587997,10.567001 -23.412994,16.736984 -26.475006,18.509995c-3.060989,1.772003 -6.122986,3.580994 -9.184998,5.424988c-3.060989,1.844025 -5.672989,3.085022 -7.834,3.723022c-2.160995,0.638 -7.384003,2.304993 -15.667999,5c-8.285,2.694977 -13.238003,4.218994 -14.858997,4.573975l-2.431,0.532013l1.620995,-1.277008c1.081001,-0.850983 4.321999,-2.623993 9.725006,-5.319c5.403004,-2.694 12.156994,-6.772003 20.260998,-12.233002c8.104996,-5.460999 12.966995,-8.793976 14.587997,-9.998993c1.621002,-1.205994 6.394012,-4.929001 14.318008,-11.169998c7.923996,-6.240997 12.606995,-9.929001 14.047989,-11.063004c1.44101,-1.134995 9.545013,-7.729996 24.313004,-19.785995c14.768005,-12.057007 23.682999,-18.828995 26.744003,-20.319l4.593002,-2.233002l8.104004,-0.425995l8.104996,-0.425003l4.052002,-2.447006c2.701996,-1.630997 6.484009,-4.112991 11.346008,-7.446991c4.862976,-3.333008 9.634979,-5.921005 14.317993,-7.764999c3.596985,-0.542007 3.807007,-6.007996 7.550995,0.457993l4.859009,0.626999l3.238007,1.677002c3.241974,0.42601 8.02298,-1.313004 8.92099,0.246002c0.897003,1.559998 3.248993,0.951996 11.360992,2.630005c5.942993,3.759003 11.79599,6.843994 17.55899,9.25499c5.763,2.411011 9.725006,3.936005 11.887024,4.574005l3.240997,0.957001l2.971985,-3.828995c1.981018,-2.553009 4.412018,-5.248001 7.294006,-8.085007c2.881989,-2.83699 4.231995,-4.502991 4.052002,-5l-0.269989,-0.744003l1.350983,-0.531998c0.899994,-0.354996 2.610992,-1.382996 5.132996,-3.084991c2.520996,-1.702011 5.312012,-3.298004 8.374023,-4.787003c3.061981,-1.488998 7.473999,-3.085007 13.237,-4.787003c5.763,-1.701996 10.53598,-3.156006 14.317993,-4.361008c3.781982,-1.205994 7.294006,-2.730988 10.53598,-4.574997c3.242004,-1.843994 5.853027,-3.828995 7.834015,-5.957001c1.980988,-2.126999 3.421997,-3.403992 4.321991,-3.828995c0.901001,-0.425995 3.60202,-1.667007 8.105011,-3.723999c4.501984,-2.056 7.653992,-3.438995 9.454987,-4.147995c1.800995,-0.710007 4.141998,-1.419006 7.024017,-2.128006c2.880981,-0.709 3.268982,-9.048988 8.671997,-9.332985l0,0z" transform="rotate(6.5625, 312.725, 202.211)"/>
  <text xml:space="preserve" text-anchor="middle" font-family="serif" font-size="24" id="svg_1" y="114" x="104" opacity="0.5" stroke-linecap="null" stroke-linejoin="null" stroke-dasharray="null" stroke-width="0" stroke="#000000" fill="#000000"/>
  <text xml:space="preserve" text-anchor="middle" font-family="serif" font-size="24" id="svg_2" y="105" x="87" opacity="0.5" stroke-linecap="null" stroke-linejoin="null" stroke-dasharray="null" stroke-width="0" stroke="#000000" fill="#000000"/>
  <text xml:space="preserve" text-anchor="middle" font-family="serif" font-size="24" id="svg_3" y="106" x="74" opacity="0.5" stroke-linecap="null" stroke-linejoin="null" stroke-dasharray="null" stroke-width="0" stroke="#000000" fill="#000000"/>
  <text xml:space="preserve" text-anchor="middle" font-family="serif" font-size="24" id="svg_4" y="128" x="121.5" opacity="0.5" stroke-linecap="null" stroke-linejoin="null" stroke-dasharray="null" stroke-width="0" stroke="#000000" fill="#000000"/>
 </g>
</svg>