<?xml version="1.0" encoding="utf-8"?>
<!-- Generator: Adobe Illustrator 16.0.0, SVG Export Plug-In . SVG Version: 6.00 Build 0)  -->
<!DOCTYPE svg PUBLIC "-//W3C//DTD SVG 1.1//EN" "http://www.w3.org/Graphics/SVG/1.1/DTD/svg11.dtd">
<svg version="1.1" id="Layer_1" xmlns="http://www.w3.org/2000/svg" xmlns:xlink="http://www.w3.org/1999/xlink" x="0px" y="0px"
	 width="1420.39px" height="612px" viewBox="0 0 1420.39 612" enable-background="new 0 0 1420.39 612" xml:space="preserve">
<g>
	<path fill="#78788D" d="M1420.386,470.579c-5.257,2.725-9.251,6.281-2.733,11.133c-2.322-0.504-4.641-1.008-6.871-1.495
		c-7.093,6.287-0.728,9.811,9.006,12.668c-0.744,0.242-1.489,0.482-2.234,0.725c-3.364-0.587-6.727-1.174-11.731-2.052
		c2.614,2.951,4.48,5.06,7.083,7.993c-4.87-0.525-8.576-0.923-12.283-1.321c-0.17,0.281-0.338,0.565-0.502,0.846
		c2.688,0.979,5.38,1.954,8.119,2.951c-4.162,5.835-10.51-1.266-15.005,1.219c-2.791-2.19-5.583-4.381-8.654-6.794
		c2.46,0.104,4.217,0.178,6.937,0.288c-4.64-6.757-8.903-12.968-13.938-20.296c-3.592,5.804-8.827,10.787-9.265,15.918
		c-0.465,5.438-3.889,10.163-5.868,15.172c-0.774,1.963-5.787,4.392-9.261,4.642c-5.22,0.375-10.783-0.979-16.259-1.602
		c4.5-1.479,9.16-3.013,15.443-5.076c-11.589-3.357-19.823,4.398-30.215,1.597c6.052-4.262,17.961-1.487,23.267-7.151
		c-6.715,0.925-12.116,1.665-17.516,2.41c-0.248-0.423-0.501-0.845-0.749-1.269c5.179-1.584,10.361-3.167,15.544-4.749
		c-0.262-0.277-0.522-0.555-0.784-0.835c-3.712,0.61-7.427,1.221-13.408,2.201c6.328-2.496,10.462-4.126,14.603-5.759
		c-14.583,2.243-16.177,2.36-20.259,0.558c1.192-2.659,11.479-0.257,8.847-5.399c3.524-1.313,7.499-2.794,11.467-4.274
		c-6.4-0.171-12.503,2.82-17.141,0.146c5.697-3.943,10.676-7.387,16.955-11.732c-6.674,1.159-10.691,1.858-14.265,2.479
		c0-3.697,0-6.556,0-9.452c-1.167,0.092-2.395,0.188-5.192,0.406c2.451-2.767,4.221-4.76,5.991-6.76
		c-0.869,0.08-1.739,0.157-2.609,0.237c-0.607-2.998-1.214-5.998-1.826-8.997c-0.467,0.104-0.935,0.209-1.405,0.313
		c-0.585,3.319-1.171,6.643-1.791,10.16c-1.575-0.389-2.666-0.655-2.352-0.577c-0.246,2.534-0.506,5.218-0.796,8.189
		c-3.081-2.266-5.563-4.094-8.048-5.922c0.794,5.396,0.592,10.25-6.467,14.559c5.3,2.77,10.602,5.536,15.901,8.304
		c-0.563,0.405-1.126,0.812-1.691,1.216c-5.257-2.583-10.512-5.165-16.073-7.897c-2.023,6.727,9.025,7.877,13.127,12.17
		c-5.397-2.078-10.797-4.155-16.196-6.234c-0.42,0.336-0.841,0.673-1.263,1.011c6.586,3.306,13.172,6.615,19.756,9.925
		c-0.631,0.417-1.263,0.835-1.894,1.252c-4.626-1.891-9.253-3.779-13.88-5.67c-0.292,0.271-0.587,0.544-0.88,0.814
		c1.842,1.02,3.687,2.035,5.53,3.057c-0.371,0.262-0.749,0.524-1.122,0.788c-3.278-1.438-6.557-2.88-9.835-4.316
		c-0.479,0.252-0.956,0.506-1.436,0.76c0.657,1.402,1.312,2.809,2.068,4.416c-2.527-0.5-4.426-0.875-6.322-1.253
		c-0.41,0.366-0.822,0.73-1.231,1.093c6.176,3.157,12.359,6.32,18.535,9.484c-3.973-0.217-7.555-1.009-11.175-1.727
		c-3.729-0.734-8.367-0.814-11.025-2.248c-2.843-1.534-5.284-3.358-3.738-7.041c1.356-3.23,3.099-8.481-3.909-11.597
		c2.408-7.403-6.534-12.953-8.761-19.82c-2.588,6.371-11.624,10.904-11.355,17.867c0.102,2.574-3.276,5.136-4.44,7.804
		c-1.165,2.687-1.546,5.494-2.271,8.25c-0.84-0.117-1.683-0.232-2.527-0.347c-3.707-4.157-7.419-8.312-11.128-12.469
		c0.759-0.274,1.516-0.549,2.274-0.824c1.577,0.775,3.157,1.553,5.798,2.853c1.06-6.92-8.135-9.509-12.703-14.339
		c2.778-0.572,5.376-1.11,8.666-1.793c-12.908-4.262-7.868-13.291-14.409-19.447c2.18,0.242,4.299,0.479,6.918,0.768
		c-3.589-2.045-6.561-3.744-9.536-5.442c0.372-0.213,0.739-0.426,1.108-0.641c1.844,0.364,3.686,0.729,6.246,1.234
		c-3.517-2.562-6.344-4.618-9.702-7.065c2.219,0.133,3.659,0.219,3.879,0.229c-3.84-6.056-7.707-12.156-10.65-16.796
		c-4.688,7.261-10.176,15.756-15.403,23.848c0.373-0.131,1.559-0.546,2.983-1.046c-3.683,9.825-7.3,19.477-10.918,29.131
		c-1.228-0.088-2.456-0.176-3.686-0.267c0-2.629,0-5.261,0-8.18c-1.776-0.051-5.462-0.153-8.506-0.242
		c3.549-3.468,6.769-6.614,11.03-10.786c-6.516,1.689-10.777,2.79-16.58,4.293c3.347-3.489,5.753-6.002,8.385-8.746
		c-5.134,1.218-9.649,2.289-14.163,3.358c-0.519-0.602-1.032-1.2-1.547-1.802c6.831-1.959,13.665-3.915,20.147-5.774
		c-0.927-2.55-1.711-4.71-2.271-6.27c-5.854,0.812-11.679,1.621-19.492,2.704c2.131-1.857,3.257-4.029,5.251-4.374
		c7.336-1.264,6.194-4.114,5.329-7.491c-4.293,1.5-7.353,5.392-12.525,1.475c-5.427,5.167-7.085-1.664-11.114-1.369
		c-7.36,2.448-0.445,3.924,1.508,5.692c-1.313,0.293-2.34,0.522-3.362,0.752c0.164,0.13,0.334,0.255,0.496,0.384
		c10.955,3.581,10.955,3.581,10.484,5.778c-5.867-0.939-11.753-1.88-18.533-2.965c4.188,5.584,6.937,10.934,18.594,10.226
		c0.35-0.021,0.968,1.551,2.031,3.324c-7.567-1.023-13.718-1.857-21.964-2.974c3.918,2.821,6.557,4.724,9.899,7.134
		c-4.475-0.338-7.624-0.574-10.773-0.812c-0.336,0.437-0.67,0.872-1.007,1.307c3.797,1.464,7.592,2.924,12.482,4.809
		c-2.89,0-4.303,0-6.354,0c2.348,0.995,4.08,1.726,5.812,2.457c-0.2,0.292-0.397,0.581-0.593,0.874
		c-3.947-0.604-7.896-1.21-11.841-1.812c0.685-0.302,1.374-0.605,2.059-0.905c-3.881-5.003-7.761-10.008-11.585-14.936
		c6.828-1.408,6.811-1.711-1.623-7.93c2.884-0.997,5.768-1.994,10.271-3.552c-5.792-1.699-10.537-3.096-16.742-4.917
		c4.595-0.287,7.267-0.455,11.181-0.697c-9.479-3.939-12.054-7.544-7.616-9.251c-2.043-1.739-4.098-3.488-5.598-4.767
		c-2.594,1.895-5.606,4.096-9.033,6.603c1.241,0.328,3.239,0.859,5.132,1.36c-3.147,2.072-6.295,4.145-9.876,6.506
		c2.621,0.845,4.193,1.353,4.103,1.323c-2.318,1.074-4.791,2.223-7.266,3.369c0.885,0.573,1.769,1.147,2.654,1.718
		c1.734,0.484,3.472,0.974,5.528,1.555c-3.124,1.665-5.567,2.967-9.466,5.045c3.204-0.244,4.581-0.349,5.904-0.447
		c2.841,4.361-14.77,7.536-3.062,12.05c-3.099,2.903-6.207,5.814-10.543,9.872c4.629-0.476,7.608-0.777,10.158-1.04
		c0.166-0.172,0.326-0.344,0.486-0.515c0.698,0.082,1.396,0.168,2.096,0.248c-0.839,0.089-1.686,0.175-2.582,0.267
		c-5.187,5.5-10.389,11.009-16.011,16.958c3.515-0.125,5.858-0.207,9.858-0.35c-4.498,1.433-7.524,2.398-11.989,3.822
		c3.288,0.137,4.756,0.198,8.936,0.371c-5.712,2.338-9.444,3.864-13.127,5.373c-1.297-2.271-2.349-4.104-3.555-6.206
		c-5.71,0.828-10.801,1.567-15.89,2.307c-0.178-0.326-0.357-0.65-0.533-0.976c5.78-1.305,11.565-2.607,18.673-4.208
		c-3.423-2.325-5.806-3.943-8.231-5.592c1.786-1.151,4.303-2.773,6.818-4.397c-0.412-0.453-0.823-0.907-1.231-1.36
		c-3.458,0.438-6.915,0.876-10.379,1.309c3.719-2.814,7.448-5.624,11.226-8.473c-6.332,1.465-12.275,2.839-18.22,4.215
		c-0.358-0.551-0.72-1.104-1.077-1.649c4.135-1.541,9.352-2.591,12.075-4.771c2.338-1.877,1.824-5.038,2.623-7.823
		c-5.166,1.259-9.174,2.234-13.178,3.21c-0.311-0.374-0.616-0.745-0.923-1.114c3.9-1.528,7.809-3.054,13.059-5.106
		c-3.733-0.387-5.706-0.892-7.446-0.69c-1.903,0.224-3.597,1.104-5.384,1.693c-0.229-0.225-0.459-0.448-0.689-0.673
		c3.642-1.776,7.29-3.552,10.809-5.267c-1.036-1.998-1.916-3.694-2.829-5.452c-2.783,1.206-5.304,2.293-7.823,3.384
		c7.267-4.23-1.762-7.203-1.775-10.582c-4.912,7.139-5.464,9.023-2.355,12.069c-3.522-0.452-5.846-0.749-8.34-1.065
		c-6.943,6.252-1.284,9.986,7.986,13.112c-4.831,0-9.659,0-14.65,0c2.964,3.479,5.204,6.114,8.27,9.714
		c-5.089-1.51-8.154-2.42-12.334-3.665c2.927,2.926,5.052,5.049,7.595,7.585c-2.993-0.289-4.775-0.463-6.561-0.633
		c-0.467,0.458-0.933,0.917-1.397,1.377c4.756,2.213,9.511,4.429,13.375,6.227c-3.177,0.46-6.521,0.939-9.864,1.424
		c2.769,3.366-3.474,5.185-3.77,7.935c-0.209,1.914,0.802,3.873,1.408,6.393c-0.345,0.056-2.671,0.436-5.472,0.893
		c3.062,2.567,5.999,5.031,8.363,7.013c-5.725,1.513-11.138,2.94-16.906,4.469c3.188,1.534,6.062,2.921,10.621,5.116
		c-6.049,0-9.742,0-14.18,0c5.265,2.196,9.722,4.058,14.178,5.919c-0.317,0.237-0.646,0.478-0.97,0.72
		c-3.709-0.934-7.415-1.867-9.982-2.512c0,1.427,0,2.747,0,4.338c11.823,2.94,12.055,3.974,3.895,11.141
		c-2.729,2.396-3.945,5.449-5.562,8.264c-1.596,2.766-2.829,5.608-4.279,8.537c-5.003-1.385-24.65-17.697-24.343-19.401
		c1.231,0,2.475,0,2.645,0c-3.72-8.849-7.448-17.72-10.912-25.952c-0.305,3.586-0.634,7.951-1.054,12.312
		c-0.574,5.934-7.655,10.234-19.094,10.191c4.604-2.08,7.71-3.483,12.531-5.661c-4.326-0.312-7.212-0.519-10.9-0.786
		c3.36-3.913,6.584-7.675,10.282-11.985c-3.21,0.556-5.376,0.931-8.402,1.454c2.899-2.56,5.132-4.533,8.363-7.388
		c-4.029,1.231-6.549,1.999-9.064,2.771c-0.257-0.254-0.509-0.508-0.759-0.765c1.524-1.188,3.046-2.371,5.056-3.938
		c-4.954,0.426-8.784,0.756-11.075,0.954c-0.85,2.152-1.548,3.935-2.42,6.144c0.847,0.446,2.647,1.396,5.834,3.075
		c-3.857-0.117-5.902-0.18-9.723-0.299c3.641,3.781,6.784,7.042,9.928,10.305c-0.417,0.176-0.837,0.348-1.257,0.523
		c-2.333-0.956-4.667-1.914-7.003-2.87c-0.587,0.292-1.179,0.585-1.77,0.874c3.017,2.79,6.031,5.579,8.917,8.247
		c-3.286-0.385-6.765-0.796-10.24-1.201c-0.443,0.475-0.894,0.949-1.331,1.423c3.339,2.086,6.674,4.174,10.011,6.258
		c-0.135,0.33-0.27,0.659-0.404,0.984c-9.417-2.867-18.832-5.736-27.453-8.362c3.304-1.992,6.389-3.843,9.89-5.95
		c-5.245-0.599-8.229-0.937-11.211-1.274c0.164-0.455,0.334-0.914,0.5-1.372c3.539-0.841,7.077-1.684,10.486-2.494
		c-4.756-6.162-14.906-0.929-22.347-4.332c12.527-0.614,17.178-2.979,15.72-6.254c-2.248,0.188-4.326,0.359-6.402,0.531
		c4.045-3.493-4.041-2.17-4.498-5.049c0.912-0.266,2.943-0.85,5.176-1.492c-8.896-3.794-8.896-3.794-4.316-7.175
		c-2.396-1.198-4.812-2.402-6.842-3.419c-2.021,0.765-4.227,1.598-6.512,2.462c6.965,3.583-0.072,5.974-1.846,8.944
		c1.473,0.475,2.979,0.962,6.002,1.938c-4.523,1.454-7.781,2.504-11.026,3.546c2,1.442,3.76,2.714,5.319,3.836
		c-2.793,2.34-5.331,4.467-7.839,6.57c2.117,0.763,3.877,1.396,5.63,2.026c-16.11-1.965-3.718,8.093-11.289,9.355
		c1.54,0.555,3.083,1.111,4.613,1.662c-15.141,4.907-5.474,16.066-16.245,20.75c-4.059-2.884-7.544-5.36-11.161-7.928
		c1.365-1.403,3.042-3.132,4.651-4.791c-2.983-1.216-5.695-2.318-7.425-3.023c1.405-1.522,3.642-2.976,3.134-3.558
		c-2.675-3.062-6.041-5.908-8.549-8.25c2.938-1.132,5.372-2.073,7.405-2.861c-3.518-1.996-6.15-3.489-8.786-4.987
		c1.036-0.19,2.07-0.383,3.101-0.576c-0.164-1.518,0.679-3.719-0.664-4.439c-8.706-4.661-7.181-11.341-9.92-17.145
		c-0.184-0.397,1.99-1.195,3.063-1.81c-0.851,0.117-1.7,0.232-2.551,0.349c-1.896-3.622-3.789-7.249-5.779-11.059
		c-0.604,1.439-1.698,3.063-1.908,4.725c-0.943,7.626-1.663,15.224-10.349,21.533c-1.723,1.258-3.979,3.856-3.136,4.521
		c4.701,3.701-1.284,5.312-3.306,7.69c-0.829,0.974-1.561,1.979-3.021,3.846c3.448-1.785,5.563-2.884,7.675-3.979
		c0.367,0.203,0.737,0.406,1.103,0.606c-7.026,6.106-14.058,12.211-21.174,18.389c7.679,2.006,5.624,4.356,1.592,6.944
		c-3.889,2.493-5.604,5.234-1.719,8.428c-5.569,5.721-11.312,11.612-16.855,17.303c-3.577-2.647-5.724-4.883-8.852-6.371
		c-3.171-1.503-7.313-2.27-11.577-3.521c0.49-0.934,1.188-2.259,1.871-3.561c-1.9-0.312-3.654-0.601-6.741-1.104
		c3.832-0.602,6.207-0.975,8.58-1.345c0.235-0.422,0.47-0.84,0.702-1.261c-2.551-0.746-5.106-1.493-7.429-2.174
		c7.042-3.597,6.664-3.919-10.609-8.278c2.092-0.728,3.904-1.356,4.595-1.598c-1.35-1.191-3.576-2.256-3.57-3.318
		c0.01-3.45-0.578-6.317-9.786-6.168c3.988-1.136,5.951-1.695,7.38-2.104c-2.577-2.319-4.987-4.485-7.526-6.771
		c1.979-1.631,4.248-3.506,5.899-4.872c-4.66-0.698-7.808-1.169-10.953-1.64c9.933-4.127,2.072-6.139-0.572-8.424
		c1.849-1.393,3.681-2.767,6.087-4.573c-3.294-0.201-5.429-0.328-8.155-0.496c0-4.108,0-8.068,0-12.934
		c-3.92,5.765,2.525,12.464-8.471,15.837c5.335,4.063,4.848,4.535-6.326,5.841c2.363,1.231,4.566,2.381,7.63,3.979
		c-4.659,0.893-8.502,1.624-12.502,2.39c0.538,5.814,9.194,5.714,15.552,8.195c-5.686,0-11.372,0-17.02,0
		c-0.515,1.36-0.927,2.445-1.387,3.653c2.966,0.804,5.717,1.553,11.108,3.019c-5.003,0.981-7.673,1.507-12.042,2.365
		c2.699,1.774,5.45,3.586,8.155,5.363c-4.799,1.662-9.751,3.372-14.349,4.964c1.784,1.61,5.792,3.92,5.055,4.831
		c-1.554,1.915-5.604,3.099-8.561,4.545c3.161,1.553,7.103,3.483,11.042,5.415c-0.56,0.498-1.12,0.997-1.682,1.495
		c-3.284-0.182-6.568-0.365-9.913-0.555c-0.821,2.213-1.732,4.657-2.983,8.029c-2.074,0.942-9.823,0.999-4.402,6.195
		c-7.576-3.704-17.834-4.974-18.546-11.95c2.857-0.088,5.458-0.168,6.577-0.201c0.852-2.9,1.524-5.205,2.171-7.404
		c-5.614-0.698-11.784-1.469-17.952-2.236c0.146-0.251,0.295-0.499,0.44-0.747c4.737-0.268,9.472-0.531,14.605-0.82
		c-3.044-2.855-5.33-4.997-7.051-6.611c-5.982-0.471-11.435-0.9-16.203-1.277c2.964-1.668,5.845-3.29,9.514-5.35
		c-4.031-1.148-10.851,0.199-5.67-4.389c-2.934,1.122-4.526,1.731-6.121,2.342c-0.371-0.254-0.74-0.509-1.113-0.763
		c1.775-1.47,3.546-2.939,6.413-5.312c-6.742,0.685-11.785,1.193-16.83,1.704c-0.21-0.341-0.421-0.681-0.627-1.021
		c5.078-1.263,10.153-2.524,15.447-3.838c-4.27-7.866-19.772-0.299-25.785-8.052c12.695,3.72,15.979-2.241,21.925-5.132
		c-4.474-1.112-8.514-2.119-12.552-3.126c-0.099-0.46-0.195-0.921-0.293-1.383c10.201-0.896,11.916-5.09,11.75-10.05
		c-6.188,2.367-12.445,4.764-19.208,7.353c-0.621-1.676-1.35-3.636-2.446-6.605c10.847,3.427,12.398-1.771,16.176-4.557
		c0.378-0.276-1.319-1.576-2.161-2.521c1.515-1.394,3.283-3.023,6.282-5.784c-4.944,1.939-7.904,3.098-11.223,4.397
		c1.467-2.874,2.583-5.061,3.697-7.247c-0.899-0.244-1.796-0.487-2.695-0.733c-1.982,1.941-3.964,3.881-5.763,5.642
		c-6.918-6.027-6.857-6.903,0.016-8.925c-0.985-2.354-1.898-4.531-2.809-6.709c0.449-0.023,0.898-0.045,1.35-0.066
		c-1.792-1.361-3.585-2.729-4.213-3.202c-2.842,1.016-5.567,1.992-8.837,3.161c2.808,1.059,5.07,1.912,7.329,2.76
		c-0.246,0.301-0.492,0.598-0.739,0.895c-3.913-0.367-7.823-0.737-11.737-1.105c9.884,4.539,11.783,6.188,9.532,9.309
		c-8.074-3.458-8.074-3.458-11.417-0.669c1.913,3.997,13.996,2.159,12.534,9.317c-5.892-2.606-10.656-4.713-16.862-7.456
		c0.315,2.702,0.598,4.457,0.698,6.217c0.072,1.345-0.089,2.695-0.145,4.045c0.031,0,0.062,0,0.092,0
		c0.035-0.037,0.072-0.067,0.104-0.104c0.062,0.036,0.122,0.069,0.183,0.104c7.81-0.121,15.921,3.757,15.346,8.846
		c-5.807-3.363-10.562-6.118-15.346-8.846c-0.094,0-0.192-0.004-0.287,0c-1.503,1.661-3.921,2.59-3.814,5.282
		c0.174,4.381,4.749,2.649,7.729,3.509c2.364,0.683,4.323,2.059,6.011,3.343c1.823,1.384,3.121,3.021,5.039,4.939
		c-5.917-0.452-12.787-0.977-19.321-1.476c0.11,7.079,11.667,5.462,18.032,9.654c-6.758,0.495-13.517,0.982-20.543,1.493
		c0.144-1.909,0.226-2.978,0.307-4.04c-0.467-0.068-0.933-0.134-1.402-0.199c-3.027,3.926-6.057,7.851-9.086,11.776
		c-0.608-0.104-1.218-0.211-1.827-0.315c0.873-4.628,1.749-9.253,2.646-14.008c0.117,0.018-0.69-0.111-1.499-0.24
		c-2.107,5.74-4.213,11.479-5.729,15.616c-2.478-1.039-6.513-2.734-10.673-4.48c11.097-3.986,11.097-3.986,10.439-7.003
		c-1.16,0.452-3.149,1.816-4.417,1.609c-3.038-0.503-5.734-1.746-8.572-2.689c1.409-1.187,2.817-2.368,2.86-2.405
		c-3.227-2.328-6.225-4.49-8.502-6.135c2.594-1.477,4.373-2.484,4.711-2.681c-2.804-5.998-4.76-10.562-7.092-15.056
		c-2.324-4.475-5.026-8.879-6.384-11.256c-2.251,3.651-5.704,9.24-9.268,15.016c0.428,0.113,2.06,0.548,2.09,0.558
		c-0.874,4.27-1.027,8.069-2.567,11.655c-1.503,3.5-4.528,6.753-6.672,10.162c-1.151,1.83-1.129,4.074-2.921,5.577
		c-2.638,2.213-6.422,3.93-10.491,6.309c3.989,0.499,6.878,0.862,9.768,1.222c0.084,0.317,0.169,0.632,0.253,0.946
		c-5.18,0.761-10.359,1.524-17.35,2.552c3.277-3.873,5.366-6.348,7.455-8.819c-0.35-0.101-0.701-0.199-1.054-0.297
		c-2.778,2.413-5.558,4.826-8.335,7.242c-0.983-0.281-1.969-0.562-2.95-0.843c3.614-5.696,7.231-11.39,10.803-17.02
		c-0.646,0.133-2.016,0.41-4.001,0.814c0-1.666,0-3.142,0-4.615c-0.321-0.025-0.643-0.054-0.963-0.08
		c-1.03,1.824-2.061,3.648-3.686,6.526c-0.359-3.395-0.593-5.605-0.827-7.812c-0.492-0.027-0.984-0.053-1.477-0.082
		c-1.021,6.514-2.04,13.025-3.18,20.313c-1.523-2.235-2.545-3.74-3.568-5.247c-0.315,0.052-0.632,0.101-0.943,0.146
		c0.401,1.387,0.806,2.772,1.502,5.154c-4.984-1.085-8.771-1.907-14.487-3.15c3.781-1.655,6.183-2.705,9.882-4.328
		c-4.954,0-7.983,0-11.008,0c-0.075-0.19-0.153-0.381-0.227-0.569c4.118-0.948,8.236-1.894,12.356-2.84
		c-0.066-0.463-0.134-0.931-0.2-1.392c-3.84-0.3-7.682-0.599-14.249-1.107c5.092-1.968,7.915-3.057,9.41-3.634
		c-3.247-3.472-6.139-6.562-9.267-9.903c1.873-0.604,3.41-1.095,4.128-1.323c-1.254-1.477-2.298-2.706-3.993-4.697
		c-0.507-0.054-2.979-0.31-5.894-0.611c3.23-0.444,5.974-0.821,8.719-1.2c-0.022-0.288-0.047-0.575-0.067-0.86
		c-2.817-0.304-5.633-0.604-8.879-0.949c1.784-2.301,3.348-4.316,4.942-6.375c-1.405,0-2.625,0-3.312,0
		c0.921-1.678,1.81-3.292,2.695-4.905c-5.28,0.177-9.242,0.312-13.208,0.446c-0.094-0.358-0.188-0.71-0.284-1.065
		c4.281-0.789,8.564-1.584,12.846-2.375c-0.014-0.503-0.029-1.008-0.043-1.508c-4.979-0.607-9.956-1.214-16.826-2.053
		c14.879-0.874,14.879-0.874,17.236-5.279c-2.974,0.646-5.751,1.251-8.528,1.856c-0.108-0.141-0.22-0.281-0.331-0.423
		c1.433-0.627,2.863-1.259,2.412-1.062c0-5.425,0-9.933,0-14.567c-1.022,0-2.193,0-3.818,0c1.475-0.984,2.518-1.684,3.747-2.505
		c-2.576-0.104-4.666-0.188-7.757-0.311c2.258-1.548,3.805-2.607,6.065-4.158c-3.232-0.119-5.4-0.199-8.487-0.318
		c2.543-1.938,4.389-3.343,6.677-5.087c-2.514-0.176-4.287-0.301-5.983-0.42c0.249-1.879,0.458-3.465,0.836-6.323
		c-2.561,3.318-4.19,5.433-6.023,7.808c0.879,1.013,2.085,2.403,3.373,3.887c-2.744,0.449-4.621,0.758-7.328,1.204
		c2.88,1.177,4.731,1.938,7.965,3.259c-4.424,0.585-7.2,0.95-11.333,1.497c2.629,0.876,4.119,1.371,7.833,2.61
		c-4.458,0-6.236,0-8.302,0c1.037,0.765,1.897,1.396,2.012,1.479c-2.222,1.648-3.976,2.95-5.73,4.252
		c3.448,0.618,6.898,1.233,10.551,1.889c-1.263,5.669-3.022,6.125-18.931,3.327c2.596,3.019,4.424,5.146,6.452,7.503
		c-3.214,0.303-5.837,0.55-7.719,0.724c-0.087,6.156,7.726,2.96,12.54,3.883c-4.827,2.679-13.729-1.627-15.56,4.03
		c0.08-0.014,0.162-0.027,0.245-0.045c-0.017,0.068-0.042,0.129-0.063,0.193c6.279,0.261,12.555,0.521,18.832,0.777
		c0.036,0.46,0.073,0.923,0.106,1.386c-6.102,0.331-12.202,0.661-20.83,1.13c4.803,1.162,7.697,1.863,10.429,2.526
		c-7.476,1.55-15.422,3.2-25.988,5.392c2.743-2.168,3.949-3.926,6.114-4.672c4.785-1.653,10.262-2.675,11.334-6.539
		c-0.078-0.005-0.153-0.009-0.231-0.011c0.014-0.051,0.032-0.09,0.05-0.139c-4.974,0.894-9.975,1.793-16.172,2.907
		c1.08-5.823,11.208-5.487,14.285-8.793c-2.367-0.355-4.971-0.743-9.669-1.447c-0.306,0.401-1.578,2.074-2.853,3.75
		c-0.879-0.474-1.765-0.946-2.645-1.421c-1.431-7.298,12.396-8.584,17.033-13.833c-2.542,0.64-4.444,1.116-6.348,1.596
		c0.258-0.541,0.516-1.088,0.776-1.629c-1.277-0.73-2.848-1.346-3.775-2.21c-2.612-2.432-6.776-4.891-7.079-7.478
		c-0.931-7.927-0.338-15.916-0.338-23.882c-0.847,0.002-1.692,0.004-2.538,0.006c0,6.102,0,12.201,0,18.39
		c-2.675,0.351-4.882,0.64-6.345,0.831c2.443,3.115,4.767,6.081,7.088,9.043c-0.828,0.25-1.656,0.502-2.484,0.75
		c-1.7-0.913-3.398-1.824-5.096-2.741c-0.308,0.139-0.613,0.272-0.917,0.407c2.477,2.739,4.955,5.48,7.434,8.219
		c-0.686,0.255-1.372,0.507-2.061,0.762c-2.78-1.828-5.561-3.654-8.341-5.483c-0.609,0.339-1.22,0.68-1.829,1.02
		c3.737,2.495,7.474,4.99,10.182,6.802c-1.068,2.358-2.9,5.247-2.37,5.413c8.987,2.823,1.101,3.509-0.651,5.15
		c-3.487-1.93-6.241-3.455-9.451-5.233c-1.856,6.993,17.901,6.141,12.195,14.334c-4.077-1.292-7.633-2.42-12.512-3.967
		c3.583,5.021,17.57,5.104,12.134,12.364c-6.881-2.354-13.331-4.56-19.779-6.767c-0.497,0.31-0.993,0.611-1.491,0.919
		c3.717,1.93,7.169,4.1,11.225,5.716c3.683,1.473,5.505,2.819,4.799,5.739c-1.007,4.16-0.777,8.426-1.135,12.645
		c-0.333,3.933-0.74,7.858-1.064,11.253c-4.102-3.711-8.155-7.376-12.624-11.417c-0.076,0.05,1.021-0.659,2.391-1.548
		c-3.312-1.395-6.655-2.656-9.687-4.153c-0.998-0.493-1.883-1.707-1.552-2.356c0.301-0.591,2.258-1.025,3.609-1.227
		c1.394-0.207,2.939-0.047,6.106-0.047c-8.436-4.222-17.349-7.438-11.495-14.533c0.562-0.685-1.501-2.086-2.111-3.2
		c-1.671-3.056-3.219-6.141-4.949-9.47c2.218,0.14,3.763,0.232,4.161,0.261c-1.659-4.779-3.326-9.581-4.998-14.391
		c-5.942,13.99-6.143,29.369-25.622,39.664c1.344,1.117,2.266,1.889,3.611,3.009c-6.327-0.28-12.813-4.417-12.844-7.711
		c1.56-0.391,3.227-0.81,5.074-1.271c-1.456-3.076-5.603-5.205-2.385-9.085c1.827-2.201-2.328-6.205-4.017-9.888
		c-3.708,5.354-7.208,10.414-10.712,15.472c-2.261,5.469-2.965,11.4-10.633,16.212c-1.763-1.696-3.61-3.478-5.28-5.087
		c-2.993,0.72-6.232,1.504-9.469,2.283c-0.249-0.262-0.502-0.523-0.751-0.785c1.177-0.88,2.354-1.764,3.53-2.642
		c-0.292-0.188-0.581-0.377-0.873-0.562c-3.125,1.167-6.253,2.336-9.377,3.503c-0.401-0.271-0.8-0.543-1.196-0.816
		c1.988-1.368,3.979-2.738,5.595-3.85c-8.181,1.872-16.406,3.762-24.634,5.646c-0.317-0.486-0.637-0.98-0.957-1.468
		c6.615-1.652,13.227-3.306,20.637-5.155c-1.755-0.55-2.474-0.772-3.193-0.997c4.57-2.311,9.137-4.618,14.367-7.263
		c-11.705,2.485-22.624,4.805-33.542,7.122c-0.277-0.481-0.556-0.96-0.833-1.441c6.21-1.437,13.078-2.291,18.438-4.48
		c5.056-2.064,8.528-5.534,12.696-8.387c-0.35-0.238-0.696-0.478-1.045-0.716c-6.825,2.077-13.651,4.153-20.196,6.146
		c0.513-2.611,0.896-4.563,1.298-6.621c2.813-0.827,6.135-1.811,10.586-3.126c-5.022-0.872-8.303-1.439-13.49-2.342
		c5.934-2.71,10.493-4.796,15.057-6.88c-5.163-0.217-10.056,0.341-14.771,1.238c-5.984,1.14-11.827,2.553-18.658,4.052
		c10.927-4.14,20.624-7.814,30.321-11.485c-0.455-0.488-0.912-0.976-1.371-1.465c-5.581,1.317-11.164,2.639-16.744,3.955
		c-0.648-0.479-1.299-0.96-1.946-1.437c3.878-1.699,7.759-3.397,11.639-5.093c-8.069,0.108-13.858,5.271-23.083,1.673
		c5.875-1.745,11.253-3.343,16.631-4.942c-0.22-0.31-0.44-0.62-0.66-0.929c-2.685,0-5.371,0-8.691,0
		c5.302-4.432,10.177-8.51,16.333-13.658c-5.434,1.894-9.174,3.192-12.918,4.496c-0.271-0.285-0.545-0.572-0.819-0.857
		c2.078-1.116,4.154-2.232,6.363-3.419c-0.939-0.48-1.88-0.962-2.765-1.413c2.02-1.491,3.952-2.917,5.881-4.342
		c-0.378-0.183-0.754-0.362-1.133-0.544c-3.588,1.183-7.179,2.363-10.767,3.545c-0.73-0.34-1.459-0.68-2.19-1.02
		c2.018-2.39,4.031-4.779,6.318-7.492c-4.393,0.768-8.376,1.466-12.363,2.165c-0.436-0.304-0.869-0.607-1.306-0.91
		c2.769-0.987,5.535-1.974,10.14-3.613c-14.012-1.21-9.156-4.959-5.358-8.764c-3.723,0.558-5.99,0.898-7.799,1.169
		c0.71,2.242,1.299,4.096,1.609,5.075c-3.456,0.293-5.844,0.494-8.69,0.736c3.519,2.775,6.401,5.054,9.279,7.329
		c-0.808,0.414-1.616,0.834-2.424,1.249c-2.925-1.625-5.853-3.247-8.867-4.923c-4.179,4.321-4.179,4.321,8.795,12.393
		c-5.703-1.374-10.281-2.479-14.16-3.411c-0.9,6.268,7.948,8.128,16.135,10.327c-0.582,0.503-1.164,1.005-1.745,1.504
		c-6.578-1.441-13.158-2.886-18.925-4.15c-1.5,8.075,8.474,9.938,18.981,11.878c-6.669-0.82-13.335-1.639-20.003-2.459
		c8.856,3.407-1.284,3.98-1.567,5.109c3.534,1.175,6.851,2.274,10.168,3.376c-0.466,0.553-0.932,1.104-1.397,1.654
		c-3.753-0.82-7.506-1.646-11.414-2.502c0.671,2.322,2.899,5.18,1.526,6.106c-7.114,4.803,0.222,5.663,6.567,7.753
		c-3.583,1.717-6.324,3.029-9.398,4.498c5.607,1.995,10.86,3.866,16.113,5.735c-0.126,0.211-0.25,0.422-0.378,0.631
		c-4.56-0.565-9.118-1.136-13.678-1.704c-0.271,0.416-0.543,0.826-0.815,1.243c3.553,1.528,7.104,3.058,10.722,4.611
		c-5.814,0.552-10.776,1.021-17.795,1.686c5.309,3.62,9.614,6.559,14.514,9.902c-3.635,0-6.685,0-9.736,0
		c-0.034,0.366-0.068,0.73-0.103,1.099c5.569,0.453,11.139,0.911,16.707,1.364c-0.099,0.462-0.196,0.919-0.294,1.381
		c-7.396-0.419-14.791-0.835-22.156-1.25c2.09,2.794,6.617,6.161,5.304,7.609c-3.403,3.741,2.174,3.464,5.517,5
		c-3.38,0.86-5.792,1.271-7.811,2.051c-1.716,0.663-3.64,1.604-4.305,2.684c-1.384,2.235-1.988,4.651-3.206,7.728
		c-4.811-1.75-8.02-2.915-11.227-4.082c0.877-0.211,1.755-0.422,2.63-0.633c0.292-1.182,1.542-2.884,0.697-3.447
		c-3.183-2.114-7.049-3.859-9.528-5.154c2.404-6.801,0.648-12.163-7.099-17.463c3.148,0.747,4.661,1.105,7.569,1.795
		c-3.75-9.657-7.171-18.461-10.533-27.115c0.739-0.107,2.232-0.314,2.473-0.349c-3.996-3.394-7.786-6.616-11.777-10.008
		c5.013,0,8.087,0,10.039,0c-3.607-4.585-6.865-8.729-9.721-12.358c-2.815,3.858-5.912,8.101-9.661,13.241
		c3.51-0.942,4.936-1.321,7.834-2.101c-3.207,4.303-5.983,7.744-8.35,11.282c-2.83,4.23-5.31,8.545-8.518,13.761
		c3.716,2.522,2.223,5.563-3.774,8.35c-0.969,0.449-0.698,1.955-0.781,2.979c-0.089,1.124,0.551,2.349,0.019,3.366
		c-0.822,1.579-3.638,3.104-3.377,4.498c0.783,4.143-3.59,5.671-8.319,7.29c-0.324,0.111-0.321,0.567-0.477,0.878
		c1.418,0.359,2.812,0.711,4.201,1.064c-1.017,0.965-1.695,1.605-2.62,2.479c2.006-0.068,3.103-0.107,4.943-0.172
		c-2.397,2.639-4.267,4.692-6.136,6.748c-0.895,0.036-1.79,0.075-2.688,0.116c-0.693-2.276-1.296-4.567-2.133-6.825
		c-0.338-0.913-0.985-1.84-1.845-2.62c-4.536-4.097-9.932-8.025-4.054-13.334c0.679-0.612,0.107-1.928-0.43-2.796
		c-3.42-5.521-6.995-11.004-9.614-15.092c-1.805,3.403-3.37,8.451-7.109,12.823c-3.634,4.248,1.291,9.526-5.444,13.126
		c-0.478,0.258-0.642,1.045-0.371,1.445c4.276,6.344-6.051,6.867-11.031,9.72c-0.271-2.209-0.542-4.414-0.839-6.851
		c2.78-0.191,5.367-0.365,8.208-0.561c-4.646-2.269-9.478-3.851-12.448-6.261c-4.412-3.587,0.277-5.522,7.841-6.776
		c-7.125-2.207-12.187-3.777-18.419-5.709c5.03-0.459,8.438-0.77,12.676-1.159c-5.316-3.585-9.677-6.525-14.955-10.087
		c3.776,0.4,5.753,0.611,7.728,0.821c0.124-0.304,0.246-0.608,0.368-0.911c-2.356-1.146-4.71-2.294-7.284-3.545
		c1.359-0.954,2.518-1.765,3.138-2.199c-4.183-2.893-7.989-5.525-12.287-8.497c3.546-0.642,5.949-1.075,9.403-1.698
		c-3.041-1.264-5.021-2.086-7.244-3.011c1.625-0.79,2.81-1.364,3.779-1.838c-3.846-2.426-7.452-4.701-11.053-6.973
		c6.346-3.687,4.586-6.185,0.15-10.019c-5.105-4.409-7.277-10.121-10.095-15.391c-1.2-2.25-0.81-4.812-1.142-7.229
		c-0.89-0.049-1.78-0.1-2.674-0.146c1.128,12.007-5.533,22.779-13.02,33.422c-0.034,0.049,0.379,0.211,0.852,0.464
		c1.565-0.685,3.242-1.418,6.016-2.634c-1.302,2.522-2.014,4.209-3.042,5.821c-1.733,2.728-6.459,6.854-5.03,7.857
		c5.999,4.198-0.978,5.729-3.114,8.217c-0.742,0.864-1.939,1.591-3.066,2.49c1.663,0.198,2.9,0.346,4.33,0.517
		c-0.892,0.932-1.67,1.747-2.979,3.119c2.748-0.689,4.543-1.137,6.338-1.587c0.263,0.233,0.53,0.469,0.792,0.701
		c-2.999,2.076-6,4.15-9.086,6.285c3.067,1.216,5.478,2.172,7.602,3.014c-3.309,3.314-6.165,6.174-10.118,10.135
		c-5.527-11.151-10.645-21.472-15.789-31.856c-1.277,1.105-4.71,2.725-4.476,4.112c1.024,6.011-1.563,11.104-9.49,15.774
		c3.256-0.135,5.115-0.21,6.33-0.259c-3.021,4.689-5.878,9.122-8.716,13.527c-2.659-1.518-5.279-3.012-6.876-3.925
		c4.726-7.611-3.828-12.183-9.405-17.423c2.697-0.6,4.605-1.021,6.513-1.442c0.802-0.659,1.607-1.317,2.409-1.973
		c-5.276-1.744-10.555-3.487-15.831-5.232c1.002-0.626,2.005-1.255,3.007-1.885c2.205,1.112,4.408,2.221,5.794,2.921
		c-2.412-5.087-4.606-10.502-7.661-15.733c-0.985-1.693-3.569-3.048-5.696-4.498v126.842c18.835,2.915,37.794,5.593,57.983,8.543
		c-0.031-0.074,0.884,1.046,0.901,2.174c0.109,6.143,0.11,12.284,0.145,18.43h1361.79V470.579H1420.386z M230.499,604.366
		c-5.158-7.11-8.234-17.242,1.419-22.72C236.201,588.76,235.546,599.251,230.499,604.366z M536.027,552.529
		c-1.535-6.864,6.098-8.432,10.021-11.453c0.728,0.29,1.455,0.581,2.183,0.87C544.607,545.088,540.985,548.228,536.027,552.529z
		 M611.469,539.817c-0.902-0.623-1.805-1.247-2.71-1.871c2.133-3.607,4.262-7.213,6.288-10.646
		c4.218,1.828,7.521,3.262,11.642,5.046C621.721,534.538,610.578,531.636,611.469,539.817z"/>
</g>
</svg>
